<svg width="72" height="72" viewBox="0 0 72 72" fill="none" xmlns="http://www.w3.org/2000/svg">
<g clip-path="url(#clip0_339_31375)">
<path fill-rule="evenodd" clip-rule="evenodd" d="M36.0003 0.0449219C55.8579 0.0449219 71.9556 16.1427 71.9556 36.0003C71.9556 55.8579 55.8579 71.9557 36.0003 71.9557C16.1427 71.9557 0.0449219 55.8579 0.0449219 36.0003C0.0449219 16.1427 16.1427 0.0449219 36.0003 0.0449219Z" fill="#FEFEFE" stroke="#007A5E" stroke-width="0.148789" stroke-miterlimit="22.9256"/>
<path fill-rule="evenodd" clip-rule="evenodd" d="M36.0009 5.18945C53.0177 5.18945 66.8125 18.9843 66.8125 36.001C66.8125 53.0177 53.0177 66.8125 36.0009 66.8125C18.9842 66.8125 5.18945 53.0177 5.18945 36.001C5.18945 18.9843 18.9842 5.18945 36.0009 5.18945ZM36.0009 12.4354C49.0159 12.4354 59.5665 22.986 59.5665 36.0009C59.5665 49.0158 49.0159 59.5665 36.0009 59.5665C22.986 59.5665 12.4354 49.0158 12.4354 36.0009C12.4354 22.986 22.986 12.4354 36.0009 12.4354Z" fill="#007A5E"/>
<path fill-rule="evenodd" clip-rule="evenodd" d="M27.119 2.80884C29.2582 2.24405 31.5437 1.8879 34.3867 1.67761C36.6953 1.50679 39.2595 1.69118 41.7258 2.11309C44.3947 2.56936 46.9546 3.30457 48.9565 4.16869C49.947 4.59618 50.9516 5.04513 51.9248 5.53502C52.8933 6.0225 53.8192 6.54725 54.6489 7.12587C54.7646 7.20662 54.7944 7.22822 54.8212 7.24751C54.8923 7.29911 54.9553 7.34481 54.9761 7.35856C54.9764 7.3582 54.9767 7.3578 54.9769 7.35736C55.0554 7.40891 55.0967 7.43418 55.1391 7.46015C55.1869 7.48939 55.236 7.51948 55.3155 7.57094C55.3223 7.5755 55.3292 7.58 55.336 7.5846C55.9442 8.03097 56.5524 8.47733 57.1606 8.92379C57.986 9.57459 58.7416 10.2169 59.4668 10.8947C60.1877 11.5682 60.8786 12.2781 61.579 13.0681C64.2308 16.0588 66.3537 19.3775 67.8524 23.0181C69.2927 26.5169 70.1561 30.3115 70.3578 34.3964C70.482 36.9116 70.3093 39.406 69.9012 41.7932C69.466 44.3395 68.7632 46.7666 67.8674 48.9695C66.7361 51.7514 65.4598 54.0284 63.9897 56.0511C62.5243 58.0674 60.8645 59.8304 58.962 61.5901C58.5653 61.9571 58.1909 62.2847 57.8176 62.5932C57.4447 62.9017 57.0426 63.2161 56.5952 63.5531C56.5954 63.5534 56.5956 63.5537 56.5958 63.554C55.8076 64.1475 54.9257 64.7522 53.994 65.3257C53.9938 65.3253 53.9935 65.3249 53.9933 65.3244C53.1291 65.8565 52.2179 66.3647 51.2938 66.8165C49.2239 67.8287 46.9584 68.7132 44.5286 69.3478C42.3791 69.9091 40.0998 70.2754 37.7123 70.362C31.77 70.5775 26.2382 69.4467 21.3185 67.1298C16.326 64.7785 11.9656 61.2053 8.44774 56.5775C7.86546 55.8115 7.25706 54.9256 6.67861 53.989C6.13856 53.1145 5.62184 52.1915 5.17347 51.2759C2.95757 46.7504 1.79425 42.0957 1.62513 37.4046C1.45252 32.6165 2.31565 27.7932 4.15227 23.0329C5.20628 20.3011 6.81489 17.5689 8.74007 15.0847C10.7242 12.5243 13.047 10.2233 15.4477 8.45399C16.2352 7.87367 17.2116 7.19488 18.2507 6.55439C19.0731 6.04741 19.9292 5.56787 20.753 5.18552C22.9948 4.14499 24.9792 3.37385 27.1191 2.80893L27.119 2.80884ZM34.4482 2.54959C31.6596 2.7559 29.4246 3.1034 27.3412 3.65345C25.2585 4.20315 23.3178 4.95809 21.1188 5.97884C20.3214 6.34888 19.4976 6.81007 18.7088 7.29629C17.7026 7.91656 16.7435 8.58393 15.9641 9.15831C13.6273 10.8805 11.3649 13.1221 9.43077 15.6179C7.55456 18.0391 5.98898 20.6964 4.96613 23.3474C3.17205 27.9974 2.32887 32.7048 2.49715 37.3737C2.66194 41.9439 3.79612 46.4803 5.95653 50.8926C6.39066 51.7793 6.89345 52.6769 7.4207 53.5306C7.98705 54.4477 8.57884 55.31 9.14197 56.0508C12.5721 60.5632 16.8237 64.0472 21.6912 66.3397C26.4866 68.5981 31.882 69.7 37.6815 69.4898C40.0013 69.4056 42.2178 69.0493 44.3097 68.503C46.6809 67.8837 48.8914 67.0207 50.9107 66.0332C51.8064 65.5954 52.6927 65.1008 53.5358 64.5817C53.5358 64.5812 53.5358 64.5806 53.5358 64.5801C54.4492 64.0178 55.3076 63.4297 56.0691 62.8562C56.0696 62.8562 56.0702 62.8562 56.0708 62.8562C56.4801 62.5479 56.869 62.2428 57.2601 61.9194C57.6513 61.596 58.0154 61.2789 58.3703 60.9505C60.2265 59.2336 61.8476 57.5113 63.2817 55.538C64.7113 53.5711 65.9537 51.3538 67.0568 48.6412C67.93 46.4937 68.6151 44.128 69.0393 41.6461C69.4377 39.3155 69.6065 36.8842 69.4856 34.4373C69.2889 30.4549 68.448 26.7574 67.0452 23.3497C65.5845 19.8009 63.5135 16.5644 60.9258 13.6458C60.2509 12.8846 59.5788 12.1948 58.8717 11.5339C58.1689 10.8773 57.431 10.2503 56.6202 9.61102C56.0218 9.17166 55.4235 8.73234 54.8251 8.29303C54.7793 8.26366 54.7311 8.23415 54.6842 8.20541C54.6176 8.16465 54.5532 8.12524 54.4981 8.08913C54.4981 8.0885 54.4981 8.08797 54.4981 8.08739C54.4156 8.03311 54.3649 7.99646 54.3081 7.95526C54.2552 7.91692 54.2024 7.87871 54.1495 7.84041C53.3639 7.29254 52.4718 6.78806 51.5314 6.3146C50.5957 5.8435 49.6002 5.3991 48.611 4.97224C46.6683 4.13365 44.1788 3.41929 41.5787 2.97471C39.177 2.56392 36.6851 2.38399 34.448 2.54946L34.4482 2.54959Z" fill="#007A5E"/>
<path d="M30.1599 34.6884H30.6386C31.5003 34.6884 31.809 35.1312 31.7445 35.7243C31.6623 36.4797 31.1267 36.9451 30.2178 36.9665L30.193 37.1455C31.8405 37.2102 33.0275 36.6267 33.1039 35.6569C33.1598 34.9478 32.5767 34.4385 31.1401 34.4385H28.2234L28.1853 34.6369C28.5729 34.6563 28.8629 34.6884 28.8773 34.8048C28.8906 34.9283 28.8734 35.0263 28.8423 35.2037L28.2663 38.4912C28.2301 38.6975 28.2099 38.8129 28.146 38.9598C28.083 39.0998 27.7503 39.1389 27.3144 39.1623L27.2676 39.4061H30.3031L30.3348 39.1623C29.9066 39.1389 29.5864 39.0998 29.5687 38.9598C29.5521 38.8128 29.5691 38.6974 29.5995 38.4912L30.1599 34.6884ZM40.7914 35.2037C40.7748 35.0262 40.7657 34.9283 40.7892 34.8048C40.813 34.6884 41.1145 34.6563 41.495 34.6369L41.4731 34.4385H38.7469L38.7564 34.6369C39.14 34.6563 39.4465 34.6884 39.4888 34.8048C39.5318 34.9283 39.5381 35.0263 39.5497 35.2037L39.6889 37.3403C39.7748 38.6591 40.4765 39.5011 42.6489 39.5011C43.9138 39.5011 45.0693 38.8746 44.8077 37.3766L44.4618 35.3959C44.4329 35.2301 44.4251 35.0852 44.4296 34.9609C44.4269 34.7466 44.6458 34.6563 45.1117 34.6369L45.0736 34.4385H43.0484L43.0774 34.6369C43.5411 34.6563 43.7906 34.7466 43.8691 34.9609C43.907 35.0853 43.9571 35.2302 43.9843 35.3959L44.2972 37.3041C44.4905 38.4836 43.918 39.0141 42.7517 39.0141C41.509 39.0141 41.0795 38.3017 40.9948 37.3911L40.7914 35.2037Z" fill="#007A5E"/>
<path d="M30.7877 53.6354C30.6268 54.0409 30.3682 54.2297 29.8718 54.2297H28.1309C28.4735 53.922 28.928 53.5235 29.3894 53.132C29.9277 52.6706 30.8086 51.9365 30.8086 51.1255C30.8086 50.3565 30.1724 49.9161 29.2705 49.9161C28.6343 49.9161 28.075 50.1957 27.7185 50.6711V51.4541H27.9981C28.11 50.7271 28.5434 50.4754 28.9769 50.4754C29.3474 50.4754 29.7879 50.734 29.7879 51.3353C29.7879 52.1253 28.9839 52.9363 28.4036 53.5026C28.075 53.8173 27.7255 54.1178 27.4668 54.4185V54.8939H30.6268L31.0603 53.6355H30.7876L30.7877 53.6354ZM33.7336 54.9777C34.8661 54.9777 35.6702 53.9501 35.6702 52.2931C35.6702 51.2444 35.0899 49.916 33.7336 49.916C32.3842 49.916 31.804 51.2444 31.804 52.2931C31.804 53.9501 32.608 54.9777 33.7336 54.9777ZM33.7336 54.726C33.4539 54.726 32.8037 54.6981 32.8037 52.342C32.8037 50.1957 33.4539 50.1677 33.7336 50.1677C34.0132 50.1677 34.6704 50.1957 34.6704 52.342C34.6704 54.6981 34.0132 54.726 33.7336 54.726ZM39.7696 53.6354C39.6088 54.0409 39.3501 54.2297 38.8537 54.2297H37.1129C37.4554 53.922 37.9099 53.5235 38.3713 53.132C38.9097 52.6706 39.7906 51.9365 39.7906 51.1255C39.7906 50.3565 39.1544 49.9161 38.2525 49.9161C37.6163 49.9161 37.057 50.1957 36.7004 50.6711V51.4541H36.9801C37.0919 50.7271 37.5254 50.4754 37.9589 50.4754C38.3294 50.4754 38.7699 50.734 38.7699 51.3353C38.7699 52.1253 37.9659 52.9363 37.3856 53.5026C37.057 53.8173 36.7074 54.1178 36.4487 54.4185V54.8939H39.6088L40.0422 53.6355H39.7695L39.7696 53.6354ZM44.2606 53.6354C44.0997 54.0409 43.8411 54.2297 43.3447 54.2297H41.6038C41.9464 53.922 42.4009 53.5235 42.8623 53.132C43.4006 52.6706 44.2815 51.9365 44.2815 51.1255C44.2815 50.3565 43.6453 49.9161 42.7434 49.9161C42.1072 49.9161 41.5479 50.1957 41.1913 50.6711V51.4541H41.471C41.5829 50.7271 42.0163 50.4754 42.4498 50.4754C42.8203 50.4754 43.2608 50.734 43.2608 51.3353C43.2608 52.1253 42.4568 52.9363 41.8765 53.5026C41.5479 53.8173 41.1984 54.1178 40.9397 54.4185V54.8939H44.0997L44.5332 53.6355H44.2605L44.2606 53.6354Z" fill="#007A5E"/>
<path fill-rule="evenodd" clip-rule="evenodd" d="M42.8327 25.3365C42.8171 25.3585 42.8015 25.3805 42.7859 25.4025C42.7799 25.415 42.7498 25.4693 42.7426 25.4895C42.6882 25.6435 42.705 25.5836 42.6891 25.7444C42.6881 26.38 42.6872 27.0155 42.6862 27.6509C42.6865 28.2346 42.618 29.6209 42.7459 30.1078C43.0556 30.0944 43.4923 29.7884 43.6522 29.5321C43.9307 29.0859 43.8007 25.4429 43.7386 25.1637C43.6424 25.1591 43.5463 25.1543 43.4501 25.1496C43.2443 25.2119 43.0385 25.2742 42.8327 25.3365ZM49.7507 43.3556C48.6376 45.001 42.0512 38.8927 37.5685 42.3189C37.364 42.4683 37.0939 42.7552 36.9172 42.8078C36.8431 40.2748 36.9121 37.2197 36.9121 34.5881C36.9121 33.8714 36.7553 32.5981 37.1704 32.1065C38.215 30.8688 40.0391 31.4533 41.3515 32.014C43.0711 32.7488 44.1064 32.783 46.1592 32.754C46.8706 34.6984 50.057 42.6826 49.7508 43.3556H49.7507ZM39.0696 42.9094C40.1558 42.5049 40.7195 42.1628 42.1635 42.4552C44.6281 42.9542 48.2188 45.0701 50.5345 44.8184C51.7573 44.6854 50.9243 43.0639 50.6793 42.4046C49.4149 39.0025 48.1496 34.7873 46.5834 31.6852C43.7757 31.9045 44.6035 31.6449 42.4043 31.2386C42.4504 30.4542 42.1899 30.6208 42.0914 30.2904C41.9576 30.143 42.0438 30.3274 41.9734 30.0585C41.9673 28.8421 41.9611 27.6259 41.955 26.4096C41.9547 25.9247 42.1298 24.8765 41.7964 24.6318C41.5854 24.4768 40.6351 24.1432 40.383 24.292C40.2766 24.9922 41.1937 24.6446 41.3579 25.2704C41.3628 26.5752 41.3677 27.8802 41.3727 29.1851C41.3747 30.3095 41.4225 30.121 41.0428 30.7123C40.8651 30.6412 40.6875 30.57 40.5099 30.4989C40.5405 30.1496 40.6606 30.0099 40.675 29.5529C40.7015 28.7065 40.7173 27.3067 40.6141 26.5418C40.0643 26.4934 38.3255 27.2685 37.7359 27.486C36.1118 28.0849 36.3524 27.9383 34.8143 27.3769C33.4239 26.8675 32.0335 26.358 30.6431 25.8486C30.2161 25.6926 29.6641 25.345 29.2656 25.632C29.3796 26.0942 29.3382 28.8881 29.334 29.4581C29.5359 29.5671 29.6072 29.6624 29.8373 29.8027C30.3488 30.0834 30.8603 30.3641 31.3718 30.6448C30.505 31.4884 26.9943 31.7384 25.7248 31.6843C24.5903 34.3989 23.4285 37.942 22.3003 40.7477C22.0927 41.2641 21.9309 41.7118 21.7332 42.2273C21.0561 43.9934 20.0405 45.4433 24.0036 44.4993C26.3413 43.9424 28.136 43.0623 30.2992 42.4683C31.9203 42.023 32.6461 42.6911 33.6651 43.0476C33.7174 43.1246 34.6538 43.7674 35.0057 44.1264C35.3749 44.5029 35.82 45.1476 36.2099 45.4417C36.7407 44.7991 37.6155 43.9418 38.2903 43.4481C38.4621 43.3225 38.9815 43.0461 39.0695 42.9094H39.0696ZM35.2048 42.6565C35.0619 42.4326 34.8907 42.3189 34.6434 42.1543C34.0143 41.7359 33.3572 41.449 32.5543 41.3175C29.078 40.7484 25.1563 43.5555 23.4389 43.6341C22.6652 43.6696 22.4856 43.3546 22.6559 42.6357C22.7532 42.2251 26.0105 33.2758 26.2903 32.759C29.3341 32.7451 30.1801 32.3787 32.1891 31.5831C33.5276 31.1574 35.4595 31.3942 35.4983 32.8311C35.5119 33.3333 35.5503 42.3956 35.4759 42.8296C35.3855 42.7719 35.2951 42.7142 35.2047 42.6565H35.2048ZM24.0793 33.515C24.088 33.8316 22.0982 38.0303 21.8075 38.7228C21.5357 39.3703 19.6178 43.6486 19.4501 43.8294C19.2918 44.4403 18.4424 45.6445 18.6634 46.2213C19.0243 46.6199 19.7661 46.507 20.3754 46.5069C22.5722 46.5066 33.4038 46.4251 34.4399 46.5246C34.4448 46.8096 34.4497 47.0945 34.4546 47.3795C35.6214 47.38 36.7882 47.3804 37.9549 47.3808C37.9602 47.0666 37.9656 46.7524 37.9708 46.4382C41.8628 46.3794 45.9518 46.4355 49.8764 46.4355C54.1706 46.4355 54.2747 46.8348 53.1925 44.4898C51.9569 41.7588 50.7212 39.0279 49.4855 36.297C49.2406 35.7558 48.9977 35.2284 48.757 34.6839C48.4013 33.8791 48.3084 33.2878 47.7761 33.2432C47.7118 33.7767 48.176 34.5857 48.389 35.0528C49.1033 36.6977 49.8177 38.3425 50.5321 39.9874C51.0129 41.1238 51.5022 42.1802 51.9675 43.3022C52.5789 44.7762 53.288 45.7235 50.8256 45.7031C45.6178 45.6599 41.6479 41.9217 37.425 45.1384C36.5566 45.7998 36.7443 45.7812 36.2212 46.2722C35.7763 46.1302 35.0206 44.9066 33.4407 44.2313C32.1848 43.6944 30.7776 43.7268 29.3799 44.0329C26.7981 44.5981 24.3954 45.7078 21.4701 45.6874C19.0163 45.6702 19.8478 44.6393 20.4468 43.2035C21.4025 40.995 22.3581 38.7865 23.3138 36.578C23.5694 35.9811 24.7135 33.7092 24.5299 33.2155C24.1529 33.2242 24.3717 33.244 24.0793 33.515L24.0793 33.515ZM25.595 22.7498C28.6602 23.9362 31.7256 25.1226 34.7908 26.309C35.744 26.6717 36.1092 27.0475 37.2059 26.6606C41.0043 25.3208 39.9199 25.4009 37.1602 23.5726C36.7636 23.3099 36.4318 23.2112 36.652 22.5953C37.1465 22.3399 37.7229 22.6228 38.2447 22.7735C38.7928 22.9317 39.3203 23.0784 39.8403 23.2284C40.6628 23.4658 42.4214 24.0939 43.2311 23.9934C44.8877 23.2179 47.4142 23.2954 46.9077 22.0027C46.7987 21.7247 46.5697 21.6545 46.2189 21.5228C44.5298 20.8749 42.8408 20.227 41.1516 19.579C39.7584 19.0383 38.4086 18.5259 36.9985 18.0305C36.7324 17.9369 36.4212 17.866 35.908 17.9951C32.7208 19.2059 29.535 20.4552 26.3397 21.6396C25.6445 21.8973 25.1335 22.0697 25.595 22.7498Z" fill="#007A5E"/>
<path d="M16.389 52.6922C16.5212 52.5659 16.5946 52.4957 16.7063 52.4264C16.8131 52.3618 17.0013 52.5097 17.2218 52.711L17.3735 52.5659L15.8999 51.0244L15.7482 51.1694C15.9394 51.3988 16.0786 51.5934 16.0093 51.6973C15.935 51.8057 15.8616 51.8759 15.7294 52.0022L14.2173 53.4478C13.351 54.2758 13.136 55.1089 14.1885 56.21C14.8014 56.8511 15.8057 57.1179 16.7845 56.1823L18.1792 54.849C18.3015 54.7321 18.4186 54.6389 18.5255 54.5647C18.7058 54.4299 18.9006 54.4966 19.1679 54.7468L19.3196 54.6018L18.2249 53.4566L18.0732 53.6017C18.3065 53.8751 18.3643 54.0727 18.2262 54.2516C18.1425 54.3502 18.0489 54.4678 17.9266 54.5848L16.5808 55.8713C15.8027 56.6151 15.1422 56.6002 14.5715 56.0032C13.9633 55.367 14.2406 54.746 14.8426 54.1706L16.389 52.6923V52.6922ZM20.8494 61.6109L23.0177 58.5588C23.1157 58.4208 23.213 58.3072 23.3041 58.2142C23.461 58.0516 23.6649 58.0802 23.9692 58.2715L24.0908 58.1004L22.6999 57.1123L22.5784 57.2834C22.9971 57.6058 23.0857 57.785 22.9729 57.9789C22.9094 58.0916 22.8452 58.2287 22.7472 58.3666L21.3082 60.3922L21.2972 60.3843C21.2078 58.9671 21.1051 57.2997 21.0497 55.9399L19.7638 55.0264L19.6422 55.1974C19.9734 55.4327 20.0553 55.7733 20.0294 56.137L18.2964 58.5764C18.1984 58.7144 18.1011 58.828 18.01 58.921C17.8585 59.0875 17.6547 59.0589 17.3448 58.8637L17.2233 59.0348L18.6196 60.0268L18.7412 59.8557C18.328 59.5372 18.2339 59.3541 18.3356 59.1524C18.3936 59.0358 18.4688 58.9065 18.5669 58.7685L20.1352 56.5609L20.1463 56.5687C20.2629 58.1464 20.3605 59.9846 20.4189 61.305L20.8494 61.6109ZM25.8887 59.6552C25.9641 59.4887 26.0061 59.3962 26.0839 59.2903C26.1589 59.1905 26.3825 59.2548 26.6683 59.3621L26.755 59.171L24.8129 58.2901L24.7262 58.4812C24.9952 58.6256 25.1908 58.7515 25.1652 58.8736C25.1367 59.002 25.0948 59.0944 25.0193 59.2609L23.7218 62.1217C23.6462 62.2882 23.6043 62.3807 23.5265 62.4866C23.4515 62.5864 23.2279 62.5222 22.9421 62.4148L22.8554 62.606L24.7975 63.4868L24.8842 63.2957C24.6151 63.1513 24.4195 63.0255 24.4452 62.9033C24.4737 62.775 24.5156 62.6825 24.5911 62.516L25.8887 59.6552ZM29.3857 60.0494L27.314 59.5728L27.267 59.7773C27.6166 59.8578 27.7884 60.2585 27.8619 60.8451C27.97 61.7036 28.1854 63.6358 28.3033 64.6632L28.8839 64.7968C29.7117 63.584 30.5447 62.3793 31.3725 61.1665C31.5611 60.8903 31.8259 60.8262 32.0635 60.8808L32.1105 60.6763L30.6392 60.3378L30.5922 60.5423C31.0144 60.6395 31.1708 60.8352 30.8819 61.2759C30.2969 62.1277 29.7154 62.9943 29.1238 63.8446C29.0003 62.7812 28.8935 61.645 28.8036 60.7074C28.7637 60.2467 29.0087 60.178 29.3386 60.2539L29.3857 60.0494L29.3857 60.0494ZM32.6286 65.5789L36.2294 65.6628L36.461 64.4425L36.2783 64.4383C35.9799 65.034 35.8427 65.4033 34.9831 65.3832C34.4281 65.3703 34.1786 65.3238 34.1906 64.8095L34.2265 63.2731L34.7882 63.2861C35.2416 63.2967 35.3767 63.6046 35.3816 63.9772L35.5643 63.9814L35.6011 62.4044L35.4183 62.4001C35.4093 62.7859 35.2204 63.0456 34.794 63.0357L34.2323 63.0226L34.2764 61.1275L35.136 61.1476C35.6098 61.1586 35.7639 61.5211 35.8542 62.004L36.037 62.0083L36.0624 60.9186L32.7392 60.8411L32.7343 61.051C33.0316 61.0782 33.2677 61.1176 33.2919 61.24C33.316 61.3693 33.3136 61.4708 33.3094 61.6535L33.2361 64.794C33.2319 64.9767 33.2295 65.0783 33.1995 65.2062C33.1695 65.3274 32.9319 65.3557 32.6336 65.3691L32.6287 65.5789L32.6286 65.5789ZM39.1412 60.9814L39.6112 60.9207C40.0745 60.8609 40.4356 61.0669 40.5292 61.7921C40.6106 62.4232 40.4742 62.9528 39.8833 63.029L39.4133 63.0897L39.1412 60.9814ZM37.6034 61.1252C37.9015 61.1072 38.1408 61.1105 38.1832 61.2279C38.2266 61.352 38.2396 61.4527 38.2629 61.634L38.665 64.7494C38.6884 64.9307 38.7014 65.0315 38.691 65.1625C38.6797 65.2868 38.449 65.3507 38.1562 65.409L38.1831 65.6172L40.2981 65.3442L40.2712 65.136C39.9732 65.154 39.7339 65.1507 39.6914 65.0334C39.6481 64.9092 39.6351 64.8085 39.6117 64.6272L39.4471 63.3515L39.9439 63.2874C40.5939 64.1456 41.1508 65.2341 41.547 65.183L42.5139 65.0582L42.4983 64.9373C42.2947 64.8407 41.8959 64.4485 41.5264 64.0184L40.7055 63.0526C41.2645 62.7824 41.6091 62.226 41.5303 61.615C41.4246 60.7958 40.7054 60.5132 39.94 60.612L37.5765 60.917L37.6033 61.1251L37.6034 61.1252ZM45.4756 60.2152L45.1808 59.3358C45.17 59.3037 45.1378 59.2717 45.0865 59.2675C44.7354 59.2853 44.4165 59.3779 43.9993 59.5178C43.1135 59.8148 42.6544 60.4686 42.8675 61.104C43.0569 61.6689 43.5732 61.8885 44.1579 62.0352C45.2524 62.3181 45.5354 62.5445 45.6775 62.9681C45.8346 63.4367 45.5764 63.9018 45.1592 64.0416C44.6136 64.2245 44.0949 63.8915 43.7899 63.3439L43.6166 63.4021L43.9437 64.3777C43.9609 64.4291 43.9888 64.4483 44.0188 64.4525C44.3956 64.469 44.7745 64.4277 45.3073 64.249C46.2252 63.9412 46.8662 63.255 46.6015 62.4655C46.4379 61.9777 46.112 61.6871 45.2916 61.4124C44.4132 61.1142 43.9079 61.0338 43.7572 60.5845C43.5979 60.1094 43.8714 59.8178 44.1603 59.7209C44.6674 59.5509 45.0512 59.9078 45.3023 60.2734L45.4756 60.2153V60.2152ZM48.191 58.6471C48.1072 58.4846 48.0606 58.3944 48.0256 58.2677C47.9938 58.1469 48.1828 58.0113 48.4442 57.8535L48.3479 57.667L46.453 58.6453L46.5492 58.8318C46.8292 58.71 47.0493 58.6346 47.1292 58.7304C47.2124 58.8323 47.2589 58.9226 47.3428 59.0849L48.7837 61.8763C48.8676 62.0387 48.9141 62.129 48.9491 62.2557C48.9809 62.3764 48.7919 62.5121 48.5305 62.6698L48.6268 62.8563L50.5218 61.8781L50.4255 61.6916C50.1455 61.8133 49.9254 61.8888 49.8455 61.7929C49.7624 61.691 49.7158 61.6008 49.6319 61.4384L48.191 58.6471ZM51.4349 55.9026L51.9038 55.569C52.3781 55.2314 52.702 55.4413 53.1534 55.6436L53.3023 55.5377L52.5528 54.7996L49.2542 57.1469L49.7058 58.0968L49.8547 57.9908C49.8115 57.4981 49.7248 57.1194 50.1937 56.7858L50.6571 56.456L52.7962 59.4624C52.9022 59.6113 52.9611 59.6941 53.0136 59.8145C53.0622 59.9296 52.8942 60.0906 52.6578 60.2837L52.7795 60.4547L54.5171 59.2184L54.3954 59.0474C54.1354 59.2075 53.9282 59.3133 53.8355 59.2297C53.7389 59.1406 53.68 59.0578 53.574 58.9089L51.4349 55.9026V55.9026ZM58.5362 54.9523C58.3259 55.1642 58.1452 55.3212 58.0354 55.262C57.9204 55.1983 57.8436 55.1319 57.7053 55.0122L57.1218 54.5072C56.9733 54.3787 56.8507 54.21 56.781 54.0423L55.9864 51.8774C55.8566 51.5412 55.9257 51.3682 56.0497 51.2249L55.891 51.0875L54.9386 52.1882L55.0972 52.3255C55.3586 52.0234 55.6512 51.9544 55.818 52.4031L56.4967 54.2259L54.6375 53.7362C54.2554 53.6294 54.0606 53.5234 54.3973 53.1344L54.2386 52.997L52.9184 54.5226L53.0771 54.66C53.2809 54.4245 53.539 54.3434 54.004 54.4683L56.3026 55.0607L57.0807 55.7341C57.219 55.8537 57.2958 55.9202 57.3754 56.0248C57.4498 56.125 57.3203 56.3264 57.1407 56.5649L57.2994 56.7022L58.6949 55.0896L58.5362 54.9523H58.5362Z" fill="#FEFEFE"/>
<path fill-rule="evenodd" clip-rule="evenodd" d="M11.8462 21.3555L12.3562 22.9355L14.0165 22.9323L12.6714 23.9056L13.1875 25.4837L11.8462 24.5053L10.5048 25.4837L11.0209 23.9056L9.67578 22.9323L11.3361 22.9355L11.8462 21.3555Z" fill="#FEFEFE"/>
<path fill-rule="evenodd" clip-rule="evenodd" d="M9.20352 31.4131L9.71359 32.9931L11.3739 32.9899L10.0288 33.9633L10.5449 35.5414L9.20352 34.5629L7.86215 35.5414L8.37833 33.9633L7.0332 32.9899L8.69351 32.9931L9.20352 31.4131Z" fill="#FEFEFE"/>
<path fill-rule="evenodd" clip-rule="evenodd" d="M10.1313 41.9932L10.6413 43.5732L12.3017 43.57L10.9565 44.5433L11.4726 46.1214L10.1313 45.1429L8.78993 46.1214L9.30602 44.5433L7.96094 43.57L9.62129 43.5732L10.1313 41.9932Z" fill="#FEFEFE"/>
<path fill-rule="evenodd" clip-rule="evenodd" d="M60.1918 21.3555L59.6818 22.9355L58.0215 22.9323L59.3666 23.9056L58.8505 25.4837L60.1918 24.5053L61.5332 25.4837L61.0171 23.9056L62.3622 22.9323L60.7019 22.9355L60.1918 21.3555Z" fill="#FEFEFE"/>
<path fill-rule="evenodd" clip-rule="evenodd" d="M63.1626 31.4131L62.6525 32.9931L60.9922 32.9899L62.3373 33.9633L61.8212 35.5414L63.1626 34.5629L64.5039 35.5414L63.9878 33.9633L65.3329 32.9899L63.6726 32.9931L63.1626 31.4131Z" fill="#FEFEFE"/>
<path fill-rule="evenodd" clip-rule="evenodd" d="M61.9084 41.9929L61.3984 43.573L59.738 43.5698L61.0832 44.5431L60.5671 46.1212L61.9084 45.1427L63.2498 46.1212L62.7337 44.5431L64.0788 43.5698L62.4185 43.573L61.9084 41.9929Z" fill="#FEFEFE"/>
<path d="M17.3686 13.3488L17.6619 13.1193C18.1898 12.7064 18.692 12.8979 19.0633 13.3725C19.5222 13.9591 19.5149 14.5321 18.9995 14.9611L19.1038 15.0944C20.1012 14.3915 20.4203 13.437 19.8322 12.6852C19.3858 12.1146 18.6724 11.9937 17.7872 12.6862L15.9902 14.0919L16.1195 14.2573C16.372 14.0855 16.5742 13.9704 16.6706 14.0497C16.7712 14.1343 16.8337 14.2143 16.9464 14.3582L18.8819 16.8324C18.9945 16.9764 19.0571 17.0564 19.1151 17.1744C19.1688 17.287 19.0084 17.4555 18.7809 17.6592L18.9102 17.8245L20.5899 16.5105L20.4606 16.3452C20.2081 16.517 20.006 16.6321 19.9096 16.5528C19.809 16.4682 19.7464 16.3882 19.6338 16.2442L17.3687 13.3488H17.3686ZM23.3789 14.5692L26.5512 12.8637L26.1498 11.6882L25.9888 11.7748C26.0237 12.4401 26.0867 12.829 25.3294 13.2362C24.8405 13.4991 24.6006 13.5819 24.357 13.1287L23.6292 11.7751L24.1241 11.509C24.5236 11.2942 24.7932 11.4952 24.9814 11.8168L25.1424 11.7302L24.3954 10.3409L24.2344 10.4274C24.4172 10.7673 24.3812 11.0864 24.0055 11.2884L23.5106 11.5545L22.613 9.88485L23.3702 9.47776C23.7876 9.25333 24.1007 9.4924 24.4177 9.86771L24.5787 9.78111L24.0626 8.82107L21.1348 10.3952L21.2341 10.58C21.5062 10.4568 21.7309 10.3745 21.8124 10.469C21.8972 10.5694 21.9453 10.6589 22.0318 10.8199L23.5194 13.5867C23.606 13.7477 23.654 13.8371 23.6911 13.9632C23.725 14.0834 23.5323 14.2254 23.2795 14.3843L23.3789 14.5692ZM28.9081 7.54933L29.3698 7.44274C29.825 7.33771 30.2046 7.50719 30.3691 8.21964C30.5122 8.83968 30.4285 9.3801 29.848 9.5141L29.3862 9.62069L28.9082 7.54933H28.9081ZM27.3919 7.84375C27.6867 7.79653 27.9252 7.77622 27.979 7.88888C28.0343 8.00815 28.0572 8.10711 28.0983 8.28516L28.8047 11.346C28.8458 11.5241 28.8687 11.623 28.8712 11.7545C28.8722 11.8793 28.649 11.9656 28.3633 12.0524L28.4105 12.2569L30.4884 11.7773L30.4412 11.5727C30.1464 11.62 29.9079 11.6403 29.8541 11.5276C29.7988 11.4084 29.776 11.3094 29.7349 11.1313L29.4455 9.87798L29.9337 9.76531C30.665 10.5554 31.3262 11.5839 31.7154 11.494L32.6653 11.2748L32.6379 11.1561C32.4257 11.08 31.9904 10.7288 31.5804 10.3371L30.6684 9.4567C31.1982 9.1329 31.4864 8.54526 31.3479 7.94499C31.1621 7.14019 30.4187 6.92964 29.6667 7.10318L27.3446 7.63914L27.3919 7.84366L27.3919 7.84375ZM34.0805 6.68213C34.3856 6.69306 34.6167 6.71984 34.6475 6.84081C34.6785 6.96856 34.6816 7.07006 34.6873 7.25276L34.7836 10.3926C34.7893 10.5753 34.7924 10.6768 34.7693 10.8062C34.7459 10.9288 34.5169 10.9697 34.213 10.9994L34.2195 11.2092L36.351 11.1437L36.3446 10.9339C36.0394 10.923 35.8083 10.8962 35.7775 10.7752C35.7465 10.6475 35.7434 10.546 35.7378 10.3633L35.6946 8.95578L36.3374 8.93601C36.7908 8.92213 36.9423 9.22226 36.974 9.59382L37.1567 9.58819L37.1083 8.0115L36.9256 8.01712C36.9306 8.403 36.756 8.67256 36.3298 8.68564L35.6869 8.70537L35.6246 6.6753L36.484 6.64892C36.9577 6.63437 37.1378 6.98784 37.2541 7.46519L37.4368 7.45956L37.4034 6.37012L34.0741 6.47234L34.0805 6.68213H34.0805ZM39.1338 11.3319L42.6871 11.9202L43.0876 10.7444L42.9073 10.7146C42.5283 11.2626 42.3406 11.6089 41.4924 11.4685C40.9447 11.3778 40.7042 11.2968 40.7882 10.7892L41.0393 9.27302L41.5936 9.36483C42.0411 9.43893 42.1316 9.76268 42.0841 10.1323L42.2645 10.1621L42.5221 8.60588L42.3418 8.57601C42.2788 8.95668 42.0553 9.18736 41.6345 9.11768L41.0802 9.02586L41.3898 7.15572L42.2381 7.29619C42.7056 7.37359 42.8073 7.75412 42.829 8.24494L43.0094 8.27481L43.1874 7.19947L39.9079 6.65655L39.8736 6.86362C40.1642 6.93232 40.3924 7.0044 40.3993 7.12907C40.4049 7.26039 40.3884 7.3606 40.3585 7.54089L39.8454 10.64C39.8156 10.8203 39.799 10.9206 39.7512 11.043C39.7046 11.1588 39.4653 11.1535 39.1681 11.1249L39.1339 11.3319L39.1338 11.3319ZM48.9915 13.2504C48.4989 13.6718 47.8384 13.9562 47.1314 13.6301C46.0371 13.1254 45.9896 12 46.5429 10.8163C47.0595 9.7126 47.9643 9.10853 48.9541 9.56503C49.784 9.94779 49.8429 10.6608 49.7229 11.1796L49.8889 11.2562L50.2546 10.4631C50.3 10.3647 50.2721 10.2475 50.1255 10.1128C49.8695 9.87548 49.6378 9.63439 49.0661 9.37068C47.271 8.54276 46.004 9.47933 45.5673 10.426C44.8443 11.9937 45.5685 13.1553 46.9333 13.7848C47.4559 14.0258 47.9642 14.1037 48.2134 14.1291C48.42 14.1498 48.5421 14.1763 48.6167 14.0467L49.1574 13.3269L48.9914 13.2503L48.9915 13.2504ZM54.7997 13.4851L55.2485 13.8452C55.7026 14.2096 55.589 14.5784 55.5175 15.0679L55.66 15.1823L56.1657 14.26L53.008 11.7263L52.2172 12.4198L52.3598 12.5342C52.8221 12.3583 53.1628 12.1717 53.6116 12.5318L54.0552 12.8877L51.746 15.7655C51.6316 15.9081 51.5681 15.9873 51.4665 16.0707C51.3691 16.1488 51.1683 16.0311 50.918 15.8563L50.7867 16.02L52.45 17.3546L52.5814 17.1909C52.3564 16.9844 52.1982 16.814 52.2532 16.702C52.3126 16.5847 52.3762 16.5055 52.4906 16.3629L54.7997 13.4851V13.4851Z" fill="#FEFEFE"/>
</g>
<defs>
<clipPath id="clip0_339_31375">
<rect width="72" height="72" fill="white"/>
</clipPath>
</defs>
</svg>
