<svg width="20" height="20" viewBox="0 0 20 20" fill="none" xmlns="http://www.w3.org/2000/svg">
<path d="M9.99994 6.75C8.20501 6.75 6.74994 8.20507 6.74994 10C6.74994 11.7949 8.20501 13.25 9.99994 13.25C11.7949 13.25 13.2499 11.7949 13.2499 10C13.2499 8.20507 11.7949 6.75 9.99994 6.75Z" fill="white" fillOpacity="0.8"/>
<path fill-rule="evenodd" clip-rule="evenodd" d="M4.76948 1.08147C8.2176 0.69609 11.7823 0.69609 15.2304 1.08147C17.1288 1.29364 18.66 2.78942 18.8828 4.69447C19.2951 8.21948 19.2951 11.7805 18.8828 15.3055C18.66 17.2106 17.1288 18.7064 15.2304 18.9185C11.7823 19.3039 8.2176 19.3039 4.76948 18.9185C2.87108 18.7064 1.33989 17.2106 1.11707 15.3055C0.704791 11.7805 0.704791 8.21948 1.11707 4.69447C1.33989 2.78942 2.87108 1.29364 4.76948 1.08147ZM14.9999 4C14.4477 4 13.9999 4.44772 13.9999 5C13.9999 5.55228 14.4477 6 14.9999 6C15.5522 6 15.9999 5.55228 15.9999 5C15.9999 4.44772 15.5522 4 14.9999 4ZM5.24994 10C5.24994 7.37665 7.37659 5.25 9.99994 5.25C12.6233 5.25 14.7499 7.37665 14.7499 10C14.7499 12.6234 12.6233 14.75 9.99994 14.75C7.37659 14.75 5.24994 12.6234 5.24994 10Z" fill="white" fillOpacity="0.8"/>
</svg>
