<svg width="18" height="18" viewBox="0 0 18 18" fill="none" xmlns="http://www.w3.org/2000/svg">
<path fill-rule="evenodd" clip-rule="evenodd" d="M17.9999 4.66014V5.00014C18.0007 6.06622 17.576 7.08856 16.8199 7.84006L13.9999 10.6701C13.4738 11.1912 12.6261 11.1912 12.1 10.6701L12 10.5601C11.8094 10.3657 11.8094 10.0545 12 9.86006L15.4399 6.42012C15.807 6.03944 16.0083 5.52889 15.9999 5.00014V4.66014C16.0003 4.12711 15.788 3.61595 15.4099 3.24016L14.7599 2.59017C14.3841 2.21213 13.873 1.99975 13.3399 2.00017H12.9999C12.4669 1.99975 11.9558 2.21213 11.58 2.59017L8.14 6.00013C7.9456 6.1907 7.6344 6.1907 7.44 6.00013L7.33 5.89013C6.8089 5.364 6.8089 4.51629 7.33 3.99015L10.16 1.15018C10.9165 0.405109 11.9382 -0.00861109 12.9999 0.000198909H13.3399C14.4011 -0.000641091 15.4191 0.420239 16.1699 1.17018L16.8299 1.83018C17.5798 2.58096 18.0007 3.59897 17.9999 4.66014ZM5.64993 10.9401L10.9399 5.65014C11.0338 5.55549 11.1616 5.50224 11.2949 5.50224C11.4282 5.50224 11.556 5.55549 11.6499 5.65014L12.3499 6.35013C12.4445 6.44401 12.4978 6.57181 12.4978 6.70513C12.4978 6.83845 12.4445 6.96624 12.3499 7.06016L7.0599 12.3501C6.96604 12.4448 6.83824 12.498 6.70492 12.498C6.57161 12.498 6.44381 12.4448 6.34993 12.3501L5.64993 11.6501C5.55528 11.5562 5.50204 11.4284 5.50204 11.2951C5.50204 11.1618 5.55528 11.034 5.64993 10.9401ZM10.5599 12.0001C10.3655 11.8095 10.0543 11.8095 9.8599 12.0001L6.42993 15.4101C6.0517 15.7906 5.53645 16.0031 4.99995 16H4.65995C4.12691 16.0005 3.61576 15.7881 3.23997 15.4101L2.58997 14.7601C2.21194 14.3843 1.99956 13.8731 1.99998 13.3401V13.0001C1.99956 12.467 2.21194 11.9559 2.58997 11.5801L6.00993 8.14006C6.2005 7.94566 6.2005 7.63456 6.00993 7.44006L5.89993 7.33006C5.3738 6.809 4.52609 6.809 3.99996 7.33006L1.17999 10.1601C0.423921 10.9117 -0.000838757 11.934 1.24351e-06 13.0001V13.3501C0.00182124 14.4078 0.422491 15.4217 1.16999 16.17L1.82998 16.83C2.58076 17.58 3.59878 18.0009 4.65995 18H4.99995C6.05338 18.0062 7.0667 17.5965 7.8199 16.86L10.6699 14.0101C11.191 13.4839 11.191 12.6362 10.6699 12.1101L10.5599 12.0001Z" fill="#007A5E"/>
</svg>
