<svg width="56" height="48" viewBox="0 0 56 48" fill="none" xmlns="http://www.w3.org/2000/svg">
<path d="M30.1538 19.6359L30.1538 6.54496C30.1538 4.72678 30.7821 3.18133 32.0385 1.9086C33.2949 0.635874 34.8205 -0.000490133 36.6154 -0.000489976L49.5385 -0.000488846C51.3333 -0.000488689 52.859 0.635875 54.1154 1.9086C55.3718 3.18133 56 4.72678 56 6.54496L56 30.545C56 32.9086 55.5457 35.1643 54.637 37.312C53.7284 39.4597 52.5 41.3177 50.9519 42.8859C49.4038 44.4541 47.5697 45.6984 45.4495 46.6188C43.3293 47.5393 41.1026 47.9995 38.7692 47.9995L36.6154 47.9995C36.0321 47.9995 35.5272 47.7836 35.101 47.3518C34.6747 46.92 34.4615 46.4086 34.4615 45.8177L34.4615 41.4541C34.4615 40.8631 34.6747 40.3518 35.101 39.92C35.5272 39.4881 36.0321 39.2722 36.6154 39.2722L38.7692 39.2722C41.1474 39.2722 43.1779 38.42 44.8606 36.7154C46.5433 35.0109 47.3846 32.9541 47.3846 30.545L47.3846 29.4541C47.3846 28.545 47.0705 27.7722 46.4423 27.1359C45.8141 26.4995 45.0513 26.1813 44.1538 26.1813L36.6154 26.1813C34.8205 26.1813 33.2949 25.545 32.0385 24.2722C30.7821 22.9995 30.1538 21.4541 30.1538 19.6359ZM-1.33507e-06 19.6359L-1.90626e-07 6.54496C-3.16752e-08 4.72678 0.628204 3.18132 1.88462 1.9086C3.14103 0.635871 4.66667 -0.000492769 6.46154 -0.000492612L19.3846 -0.000491482C21.1795 -0.000491325 22.7051 0.635873 23.9615 1.9086C25.218 3.18133 25.8462 4.72678 25.8462 6.54496L25.8462 30.545C25.8462 32.9086 25.3918 35.1643 24.4832 37.312C23.5745 39.4597 22.3462 41.3177 20.7981 42.8859C19.25 44.4541 17.4159 45.6984 15.2957 46.6188C13.1755 47.5393 10.9487 47.9995 8.61538 47.9995L6.46154 47.9995C5.8782 47.9995 5.37339 47.7836 4.94711 47.3518C4.52083 46.92 4.30769 46.4086 4.30769 45.8177L4.30769 41.4541C4.30769 40.8631 4.52083 40.3518 4.94711 39.92C5.37339 39.4881 5.87821 39.2722 6.46154 39.2722L8.61538 39.2722C10.9936 39.2722 13.024 38.42 14.7067 36.7154C16.3894 35.0109 17.2308 32.9541 17.2308 30.545L17.2308 29.4541C17.2308 28.545 16.9167 27.7722 16.2885 27.1359C15.6603 26.4995 14.8974 26.1813 14 26.1813L6.46154 26.1813C4.66667 26.1813 3.14102 25.545 1.88462 24.2722C0.628203 22.9995 -1.49402e-06 21.4541 -1.33507e-06 19.6359Z" fill="#007A5E" fillOpacity="0.1"/>
</svg>
