<svg width="21" height="18" viewBox="0 0 21 18" fill="none" xmlns="http://www.w3.org/2000/svg">
<path fill-rule="evenodd" clip-rule="evenodd" d="M17.4831 16.7901L17.4838 16.7883L17.5011 16.7448L20.4999 1.62577V1.57666C20.4999 1.19996 20.3608 0.871103 20.0579 0.673844C19.7928 0.501182 19.488 0.488885 19.2743 0.505106C19.0483 0.522261 18.8352 0.578676 18.6876 0.625636C18.6117 0.649796 18.5482 0.673075 18.5028 0.690681C18.48 0.699518 18.4615 0.707016 18.448 0.712603L18.4348 0.71816L1.71502 7.2771L1.71042 7.27875C1.70139 7.28203 1.68944 7.28649 1.67502 7.2921C1.64627 7.3033 1.60713 7.31931 1.56115 7.34015C1.47087 7.38107 1.34613 7.44421 1.21963 7.53084C1.00477 7.67797 0.59566 8.02629 0.664742 8.57852C0.721963 9.03593 1.03727 9.32643 1.24983 9.47683C1.36378 9.55746 1.4728 9.6156 1.55262 9.6536C1.59307 9.67286 1.62743 9.68761 1.65302 9.69802C1.66585 9.70325 1.67657 9.70743 1.68487 9.71057L1.6955 9.71454L1.70229 9.71706L4.62753 10.7019C4.61766 10.8854 4.63586 11.0725 4.68453 11.2572L6.14982 16.8156C6.32355 17.4746 6.91978 17.9337 7.60135 17.9332C8.21228 17.9328 8.75411 17.5632 8.98429 17.0118L11.272 14.5657L15.2009 17.5779L15.2568 17.6023C15.6138 17.7581 15.9473 17.8074 16.2522 17.7658C16.5567 17.7242 16.7987 17.5965 16.9804 17.4511C17.1593 17.308 17.2819 17.1465 17.359 17.0249C17.3981 16.9631 17.4273 16.9088 17.4476 16.8679C17.4578 16.8474 17.4658 16.8301 17.4718 16.8165L17.4793 16.7991L17.482 16.7927L17.4831 16.7901ZM6.13493 10.8748C6.10163 10.7485 6.15391 10.6151 6.2642 10.5451L16.1862 4.24417C16.1862 4.24417 16.7698 3.88987 16.7489 4.24417C16.7489 4.24417 16.8531 4.30673 16.5404 4.59846C16.2438 4.87554 9.46869 11.4166 8.78316 12.0785C8.74359 12.1167 8.71997 12.1605 8.70602 12.2137L7.60022 16.4332L6.13493 10.8748Z" fill="white" fillOpacity="0.8"/>
</svg>
