<svg width="22" height="16" viewBox="0 0 22 16" fill="none" xmlns="http://www.w3.org/2000/svg">
<path fill-rule="evenodd" clip-rule="evenodd" d="M5.98901 0.890519C9.32468 0.629552 12.6756 0.629552 16.0113 0.890519L18.252 1.06582C19.5001 1.16346 20.5211 2.09886 20.7274 3.33363C21.2436 6.42313 21.2436 9.57687 20.7274 12.6664C20.5211 13.9011 19.5001 14.8365 18.252 14.9342L16.0113 15.1095C12.6756 15.3704 9.32467 15.3704 5.989 15.1095L3.7483 14.9342C2.50023 14.8365 1.47921 13.9011 1.2729 12.6664C0.756691 9.57687 0.756691 6.42313 1.2729 3.33363C1.47921 2.09886 2.50023 1.16346 3.7483 1.06582L5.98901 0.890519ZM9.00012 10.4701V5.52986C9.00012 5.29667 9.25451 5.15263 9.45447 5.27261L13.5714 7.74275C13.7656 7.85927 13.7656 8.14073 13.5714 8.25725L9.45447 10.7274C9.25451 10.8474 9.00012 10.7033 9.00012 10.4701Z" fill="white" fillOpacity="0.8"/>
</svg>
